<svg xmlns="http://www.w3.org/2000/svg" version="1.1" xmlns:xlink="http://www.w3.org/1999/xlink" xmlns:svgjs="http://svgjs.dev/svgjs" width="1000" height="1000" viewBox="0 0 1000 1000"><rect width="1000" height="1000" fill="#ffffff"></rect><g transform="matrix(0.7,0,0,0.7,150,281.25)"><svg viewBox="0 0 512 320" data-background-color="#ffffff" preserveAspectRatio="xMidYMid meet" height="625" width="1000" xmlns="http://www.w3.org/2000/svg" xmlns:xlink="http://www.w3.org/1999/xlink"><defs></defs><g id="tight-bounds" transform="matrix(1,0,0,1,0,0)"><svg viewBox="0 0 512 320" height="320" width="512"><g><svg></svg></g><g><svg viewBox="0 0 512 320" height="320" width="512"><g><path d="M96 160c0-88.366 71.634-160 160-160 88.366 0 160 71.634 160 160 0 88.366-71.634 160-160 160-88.366 0-160-71.634-160-160zM256 317.863c87.185 0 157.863-70.678 157.863-157.863 0-87.185-70.678-157.863-157.863-157.863-87.185 0-157.863 70.678-157.863 157.863 0 87.185 70.678 157.863 157.863 157.863z" fill="#0747a1" fill-rule="nonzero" stroke="none" stroke-width="1" stroke-linecap="butt" stroke-linejoin="miter" stroke-miterlimit="10" stroke-dasharray="" stroke-dashoffset="0" font-family="none" font-weight="none" font-size="none" text-anchor="none" style="mix-blend-mode: normal" data-fill-palette-color="tertiary"></path></g><g transform="matrix(1,0,0,1,32,20.139999999999986)"><svg viewBox="0 0 448 279.72" height="279.72" width="448"><g><svg viewBox="0 0 448 279.72" height="279.72" width="448"><g><svg viewBox="0 0 448 279.72" height="279.72" width="448"><g><svg viewBox="0 0 448 279.72" height="279.72" width="448"><g><svg viewBox="0 0 448 279.72" height="279.72" width="448"><g transform="matrix(1,0,0,1,144.80404050710666,103.58377114237271)"><svg viewBox="0 0 158.39191898578665 72.55245771525459" height="72.55245771525459" width="158.39191898578665"><g><svg xmlns="http://www.w3.org/2000/svg" xmlns:xlink="http://www.w3.org/1999/xlink" version="1.1" x="0" y="0" viewBox="0 0.0003996963265055001 98.09400000000001 44.93260030367349" enable-background="new 0 0 98.094 44.933" xml:space="preserve" width="158.39191898578665" height="72.55245771525459" class="icon-cn-0" data-fill-palette-color="accent" id="cn-0"><path d="M96.05 30.627h-2.503c-0.004 0-0.004 0-0.008 0h-5.664V14.278c0-0.071-0.033-0.134-0.04-0.203 0.099-0.522 0-1.082-0.329-1.553L79.331 0.845c-0.029-0.043-0.077-0.065-0.111-0.104-0.092-0.114-0.193-0.204-0.306-0.292-0.1-0.08-0.191-0.155-0.303-0.213-0.12-0.064-0.241-0.104-0.371-0.145-0.122-0.036-0.238-0.07-0.363-0.083-0.132-0.015-0.26-0.005-0.392 0.006-0.135 0.011-0.267 0.027-0.399 0.066-0.051 0.017-0.104 0.007-0.155 0.027L64.67 4.778c-0.03 0.013-0.049 0.036-0.077 0.049-0.078 0.032-0.145 0.079-0.219 0.121-0.049 0.028-0.104 0.034-0.151 0.066-0.045 0.032-0.066 0.079-0.108 0.113-0.063 0.055-0.132 0.102-0.188 0.164-0.021 0.021-0.05 0.029-0.068 0.052l-8.174 9.342c-0.038 0.042-0.049 0.096-0.08 0.14-0.088 0.116-0.156 0.239-0.216 0.374-0.056 0.125-0.102 0.245-0.132 0.377-0.014 0.058-0.05 0.104-0.06 0.166-0.008 0.068 0.017 0.133 0.013 0.202-0.003 0.059-0.024 0.117-0.021 0.175h-0.012v8.377 6.131h-2.824l2.608-5.216c0.01-0.021 0.008-0.042 0.016-0.062 0.056-0.122 0.074-0.255 0.106-0.387 0.032-0.136 0.077-0.268 0.081-0.403 0-0.022 0.013-0.04 0.013-0.062 0-0.101-0.045-0.188-0.058-0.283-0.022-0.149-0.034-0.295-0.087-0.435-0.047-0.124-0.123-0.226-0.191-0.335-0.067-0.112-0.127-0.226-0.22-0.326-0.099-0.107-0.222-0.183-0.343-0.268-0.079-0.058-0.14-0.135-0.23-0.182-0.021-0.01-0.043-0.008-0.063-0.015-0.123-0.06-0.261-0.077-0.396-0.108-0.132-0.03-0.26-0.076-0.392-0.08-0.023 0-0.041-0.012-0.063-0.012h-4.087c0-5.634-3.667-10.219-8.175-10.219-1.981 0-3.022 1.99-3.557 4.409-1.879-1.251-4.384-2.081-7.209-2.301-1.652-2.837-6.832-4.151-11.714-4.151-2.584 0-3.735 3.107-4.013 6.483-2.412 0.824-4.162 3.09-4.162 5.778-0.022 0-0.041 0.012-0.063 0.012-0.131 0.004-0.258 0.05-0.39 0.08-0.137 0.031-0.276 0.049-0.399 0.108-0.02 0.007-0.042 0.005-0.062 0.015-0.091 0.047-0.151 0.124-0.232 0.182-0.121 0.085-0.244 0.16-0.344 0.268-0.091 0.101-0.15 0.214-0.219 0.326-0.068 0.109-0.143 0.211-0.19 0.335-0.052 0.14-0.066 0.285-0.086 0.435-0.015 0.096-0.058 0.183-0.058 0.283 0 0.022 0.012 0.04 0.012 0.062 0.004 0.136 0.05 0.268 0.082 0.403 0.032 0.132 0.049 0.265 0.105 0.387 0.009 0.021 0.007 0.042 0.017 0.062l2.608 5.216H4.554c-0.003 0-0.006 0-0.008 0H2.043C0.915 30.627 0 31.541 0 32.671s0.915 2.043 2.043 2.043h1.609l9.293 9.597c0.004 0.004 0.008 0.004 0.013 0.007 0.189 0.194 0.414 0.35 0.667 0.455 0.252 0.106 0.521 0.16 0.789 0.16h69.267c0.27 0 0.536-0.054 0.79-0.16 0.251-0.105 0.477-0.261 0.666-0.455 0.005-0.003 0.009-0.003 0.013-0.007l9.292-9.597h1.608c1.129 0 2.044-0.913 2.044-2.043S97.179 30.627 96.05 30.627zM75.613 30.627V19.679l8.175-3.738v14.687H75.613zM76.896 4.493l5.358 7.654L74.269 15.8l-5.696-8.136L76.896 4.493zM65.216 9.996l3.976 5.68-7.95-1.137L65.216 9.996zM59.265 18.388l12.262 1.75v10.489H59.265V18.388zM44.959 22.453h-4.087c0-2.935 0.409-5.043 0.75-6.013C43.494 16.986 44.959 19.514 44.959 22.453zM16.349 20.409c1.128 0 2.043-0.914 2.043-2.043 0-2.088 0.367-3.455 0.641-4.063 4.58 0.123 7.196 1.49 7.535 2.096 0.006 0.151 0.064 0.287 0.101 0.429 0.026 0.104 0.031 0.216 0.073 0.312 0.064 0.148 0.169 0.266 0.265 0.392 0.061 0.082 0.102 0.176 0.172 0.245 0.124 0.123 0.277 0.202 0.428 0.288 0.075 0.044 0.134 0.109 0.215 0.142 0.243 0.103 0.508 0.16 0.787 0.16 4.679 0 8.175 2.157 8.175 4.087h-22.48C14.305 21.325 15.222 20.409 16.349 20.409zM13.525 26.54h36.302l-2.043 4.087H15.568L13.525 26.54zM82.813 40.846H15.279l-5.938-6.132h79.412L82.813 40.846z" fill="#50a060" data-fill-palette-color="accent"></path></svg></g></svg></g><path d="M88.674 103.874L86.541 103.686 91.079 89.751 94.302 90.801 91.383 99.767 98.098 101.953 100.352 95.029 103.576 96.078 101.321 103.003 111.937 106.46 110.468 110.971ZM120.938 87.184V87.184C120.04 88.872 118.955 90.212 117.686 91.202 116.413 92.184 115.024 92.843 113.52 93.178 112.01 93.51 110.44 93.535 108.811 93.251 107.185 92.961 105.578 92.393 103.99 91.548V91.548C102.385 90.693 101.014 89.676 99.877 88.495 98.738 87.305 97.895 85.993 97.348 84.558 96.798 83.114 96.583 81.59 96.702 79.986 96.817 78.389 97.325 76.746 98.223 75.058V75.058C99.144 73.328 100.235 71.954 101.497 70.937 102.764 69.922 104.147 69.238 105.646 68.884 107.148 68.54 108.716 68.503 110.352 68.776 111.984 69.054 113.624 69.631 115.27 70.508V70.508C116.9 71.375 118.273 72.417 119.391 73.633 120.509 74.849 121.339 76.185 121.882 77.641 122.422 79.103 122.622 80.641 122.482 82.256 122.339 83.877 121.824 85.519 120.938 87.184ZM118.14 85.546V85.546C118.762 84.378 119.034 83.276 118.955 82.242 118.871 81.205 118.546 80.236 117.98 79.336 117.41 78.442 116.686 77.632 115.807 76.907 114.934 76.185 114.005 75.561 113.019 75.036V75.036C112.033 74.511 110.982 74.073 109.866 73.722 108.747 73.376 107.637 73.206 106.536 73.21 105.441 73.218 104.419 73.481 103.469 73.998 102.523 74.509 101.734 75.358 101.102 76.545V76.545C100.48 77.714 100.211 78.817 100.295 79.854 100.373 80.888 100.703 81.855 101.285 82.755 101.863 83.662 102.588 84.476 103.461 85.198 104.34 85.924 105.264 86.544 106.232 87.06V87.06C107.218 87.584 108.272 88.017 109.394 88.356 110.51 88.693 111.62 88.856 112.724 88.845 113.825 88.841 114.845 88.584 115.782 88.075 116.725 87.57 117.511 86.727 118.14 85.546ZM133.945 67.903V67.903C132.73 69.38 131.402 70.479 129.962 71.198 128.52 71.909 127.029 72.28 125.488 72.311 123.941 72.338 122.398 72.051 120.857 71.45 119.321 70.844 117.858 69.97 116.469 68.827V68.827C115.064 67.671 113.922 66.403 113.041 65.02 112.16 63.628 111.593 62.175 111.341 60.66 111.088 59.136 111.179 57.6 111.613 56.052 112.042 54.509 112.864 52.999 114.079 51.522V51.522C115.324 50.008 116.665 48.878 118.103 48.13 119.547 47.386 121.038 46.989 122.577 46.939 124.117 46.898 125.662 47.173 127.211 47.764 128.756 48.359 130.249 49.25 131.69 50.435V50.435C133.115 51.608 134.255 52.901 135.11 54.314 135.965 55.727 136.515 57.201 136.759 58.736 136.999 60.275 136.891 61.823 136.434 63.378 135.973 64.938 135.143 66.447 133.945 67.903ZM131.526 65.744V65.744C132.367 64.722 132.852 63.696 132.98 62.667 133.102 61.633 132.975 60.619 132.598 59.625 132.217 58.636 131.667 57.699 130.949 56.814 130.236 55.933 129.449 55.138 128.586 54.428V54.428C127.724 53.719 126.781 53.082 125.756 52.516 124.728 51.956 123.674 51.569 122.593 51.356 121.518 51.147 120.464 51.202 119.431 51.521 118.402 51.835 117.461 52.511 116.607 53.549V53.549C115.766 54.571 115.284 55.599 115.161 56.633 115.033 57.662 115.165 58.675 115.557 59.673 115.944 60.676 116.494 61.617 117.207 62.498 117.925 63.383 118.707 64.174 119.554 64.871V64.871C120.417 65.58 121.364 66.213 122.397 66.768 123.425 67.319 124.481 67.698 125.565 67.906 126.645 68.119 127.695 68.07 128.715 67.757 129.739 67.448 130.676 66.777 131.526 65.744ZM150.583 34.692V34.692C152.124 36.55 153.119 38.514 153.566 40.584 154.014 42.654 153.882 44.679 153.17 46.659 152.458 48.639 151.155 50.415 149.261 51.986V51.986L142.427 57.652 127.797 40.009C127.784 39.993 127.644 39.888 127.378 39.692 127.111 39.496 126.835 39.295 126.551 39.088 126.261 38.885 126.093 38.772 126.048 38.749V38.749L133.329 32.711C135.291 31.084 137.3 30.108 139.359 29.783 141.407 29.457 143.395 29.716 145.32 30.56 147.245 31.405 149 32.782 150.583 34.692ZM146.789 38.021V38.021C146.046 37.125 145.22 36.338 144.31 35.659 143.404 34.976 142.444 34.478 141.429 34.165 140.418 33.847 139.391 33.782 138.348 33.97 137.305 34.157 136.273 34.674 135.254 35.519V35.519L132.258 38.003 143.899 52.041 146.949 49.512C148.282 48.406 149.082 47.187 149.349 45.853 149.625 44.521 149.509 43.176 148.999 41.817 148.499 40.46 147.762 39.194 146.789 38.021ZM155.937 19.472L154.566 17.827 167.643 11.213 169.174 14.238 160.76 18.494 163.947 24.796 170.445 21.509 171.976 24.534 165.477 27.821 170.516 37.783 166.282 39.925ZM190.527 30.569V30.569C188.696 31.122 186.982 31.298 185.384 31.097 183.79 30.887 182.344 30.367 181.045 29.537 179.745 28.701 178.62 27.605 177.673 26.25 176.731 24.893 176 23.354 175.48 21.632V21.632C174.953 19.891 174.708 18.201 174.743 16.562 174.783 14.916 175.119 13.392 175.751 11.993 176.387 10.585 177.315 9.357 178.536 8.311 179.75 7.266 181.272 6.467 183.103 5.913V5.913C184.978 5.346 186.722 5.151 188.333 5.327 189.946 5.51 191.407 6.008 192.714 6.821 194.018 7.643 195.15 8.729 196.11 10.081 197.064 11.434 197.811 13.003 198.351 14.789V14.789C198.886 16.556 199.116 18.264 199.042 19.914 198.968 21.565 198.607 23.096 197.958 24.507 197.302 25.921 196.353 27.148 195.109 28.188 193.859 29.229 192.332 30.023 190.527 30.569ZM189.714 27.43V27.43C190.981 27.047 191.954 26.463 192.632 25.678 193.308 24.887 193.765 23.973 194.003 22.937 194.236 21.902 194.299 20.818 194.193 19.683 194.09 18.555 193.876 17.456 193.553 16.387V16.387C193.23 15.318 192.799 14.264 192.261 13.225 191.717 12.188 191.055 11.281 190.275 10.504 189.497 9.733 188.59 9.193 187.554 8.885 186.524 8.574 185.366 8.614 184.079 9.003V9.003C182.812 9.386 181.84 9.973 181.164 10.765 180.486 11.549 180.033 12.465 179.805 13.512 179.57 14.561 179.504 15.65 179.608 16.779 179.714 17.913 179.925 19.006 180.243 20.055V20.055C180.566 21.124 181.003 22.176 181.553 23.212 182.102 24.24 182.769 25.142 183.556 25.918 184.336 26.695 185.236 27.236 186.258 27.542 187.282 27.854 188.433 27.817 189.714 27.43ZM200.748 3.953L200.006 1.937 208.519 0.978C210.034 0.808 211.45 0.86 212.766 1.136 214.082 1.412 215.182 2.001 216.064 2.904 216.939 3.802 217.473 5.108 217.666 6.822V6.822C217.773 7.773 217.631 8.717 217.238 9.656 216.84 10.596 216.273 11.424 215.54 12.139 214.805 12.848 213.985 13.367 213.081 13.698V13.698L222.013 24.623 216.72 25.22 208.586 14.931 206.712 15.142 207.959 26.206 203.314 26.73ZM208.463 4.427L205.542 4.756 206.337 11.813 208.51 11.568C209.394 11.469 210.176 11.273 210.857 10.981 211.53 10.69 212.039 10.249 212.383 9.658 212.734 9.067 212.856 8.296 212.749 7.346V7.346C212.665 6.602 212.412 6.001 211.991 5.544 211.576 5.086 211.058 4.764 210.438 4.578 209.826 4.398 209.167 4.348 208.463 4.427ZM234.447 25.609L236.774 4.118 229.873 3.371 230.238 0 248.986 2.03 248.621 5.4 241.621 4.643 239.294 26.133ZM262.203 31.416L265.185 20.657 255.083 17.858 252.102 28.616 247.558 27.357 253.679 5.269C253.685 5.25 253.692 5.075 253.7 4.744 253.708 4.414 253.726 4.075 253.753 3.728 253.779 3.382 253.786 3.182 253.773 3.13V3.13L258.78 4.518 255.989 14.59 266.09 17.39 268.881 7.317 273.425 8.576 266.747 32.675ZM277.984 39.039V39.039C276.285 38.16 274.933 37.091 273.927 35.833 272.931 34.572 272.256 33.192 271.903 31.691 271.553 30.185 271.51 28.616 271.775 26.983 272.046 25.354 272.594 23.74 273.421 22.143V22.143C274.257 20.527 275.258 19.144 276.426 17.994 277.602 16.841 278.905 15.982 280.333 15.419 281.77 14.853 283.292 14.619 284.896 14.719 286.495 14.816 288.144 15.304 289.842 16.183V16.183C291.583 17.083 292.969 18.158 294.002 19.408 295.031 20.663 295.731 22.038 296.103 23.533 296.465 25.03 296.519 26.598 296.266 28.237 296.008 29.872 295.45 31.518 294.592 33.175V33.175C293.744 34.815 292.719 36.2 291.516 37.332 290.312 38.464 288.986 39.31 287.537 39.87 286.082 40.427 284.546 40.646 282.929 40.525 281.307 40.4 279.658 39.905 277.984 39.039ZM279.588 36.221V36.221C280.764 36.829 281.869 37.088 282.902 36.998 283.938 36.902 284.903 36.565 285.796 35.988 286.683 35.408 287.485 34.674 288.2 33.787 288.912 32.906 289.524 31.969 290.037 30.977V30.977C290.551 29.985 290.976 28.929 291.315 27.809 291.648 26.686 291.805 25.574 291.787 24.474 291.766 23.379 291.492 22.359 290.964 21.416 290.441 20.476 289.583 19.697 288.389 19.079V19.079C287.213 18.47 286.107 18.214 285.071 18.311 284.038 18.401 283.075 18.742 282.181 19.334 281.282 19.923 280.476 20.658 279.764 21.539 279.049 22.427 278.439 23.358 277.935 24.332V24.332C277.422 25.324 277.002 26.382 276.676 27.509 276.352 28.629 276.202 29.741 276.226 30.845 276.244 31.946 276.512 32.962 277.032 33.893 277.548 34.83 278.4 35.606 279.588 36.221ZM304.798 25.165L309.031 28.464 298.801 41.589C297.781 42.897 297.356 44.253 297.525 45.657 297.7 47.065 298.444 48.28 299.757 49.304V49.304C301.086 50.34 302.441 50.777 303.822 50.616 305.207 50.449 306.423 49.693 307.472 48.348V48.348L317.702 35.223 320.748 37.597 311.214 49.828C309.743 51.716 308.222 52.965 306.654 53.574 305.08 54.178 303.511 54.282 301.947 53.885 300.377 53.484 298.857 52.71 297.385 51.563V51.563C294.891 49.619 293.497 47.452 293.206 45.063 292.92 42.678 293.751 40.235 295.7 37.735V37.735L303.969 27.126ZM333.476 51.221V51.221C334.056 51.896 334.637 52.711 335.219 53.665 335.801 54.62 336.282 55.617 336.664 56.655 337.045 57.694 337.207 58.688 337.149 59.637V59.637L333.399 59.566C333.34 58.656 333.247 57.876 333.121 57.226 332.995 56.567 332.778 55.934 332.468 55.328 332.153 54.725 331.678 54.054 331.041 53.313V53.313C330.122 52.243 329.143 51.514 328.106 51.127 327.068 50.741 326.015 50.623 324.946 50.774 323.881 50.931 322.825 51.282 321.779 51.829 320.736 52.381 319.748 53.057 318.815 53.859V53.859C318.019 54.543 317.277 55.348 316.591 56.273 315.895 57.197 315.36 58.181 314.987 59.224 314.609 60.272 314.477 61.324 314.592 62.381 314.701 63.442 315.163 64.447 315.978 65.395V65.395C316.675 66.207 317.452 66.778 318.309 67.108 319.166 67.439 320.04 67.522 320.93 67.357 321.824 67.187 322.685 66.748 323.512 66.037V66.037L325.117 64.658 321.738 60.724 324.308 59.098 330.492 66.296 325.682 70.349C324.767 71.1 323.876 71.869 323.01 72.657 322.145 73.445 321.287 74.253 320.437 75.08V75.08L318.855 73.239 320.06 70.67C318.541 70.502 317.238 70.136 316.153 69.57 315.067 69.004 314.012 68.125 312.988 66.933V66.933C311.785 65.533 310.979 64.092 310.57 62.61 310.17 61.128 310.105 59.663 310.376 58.213 310.647 56.764 311.218 55.365 312.088 54.018 312.959 52.671 314.048 51.435 315.357 50.311V50.311C317.345 48.603 319.405 47.476 321.538 46.931 323.666 46.39 325.758 46.471 327.815 47.172 329.868 47.868 331.755 49.218 333.476 51.221ZM329.017 90.018L338.675 84.419 333.418 75.35 323.759 80.95 321.395 76.871 341.224 65.375C341.241 65.365 341.369 65.245 341.606 65.015 341.843 64.784 342.093 64.554 342.354 64.326 342.616 64.097 342.76 63.959 342.787 63.912V63.912L345.393 68.407 336.351 73.65 341.608 82.718 350.651 77.476 353.015 81.554 331.381 94.097ZM333.914 101.673L354.304 94.496 351.999 87.949 355.197 86.823 361.459 104.611 358.261 105.737 355.923 99.095 335.533 106.272ZM95.23 187.58C94.816 186.322 94.567 185.105 94.483 183.929 94.404 182.751 94.452 181.774 94.627 180.999 94.807 180.221 95.059 179.779 95.383 179.673V179.673C95.561 179.614 95.823 179.609 96.17 179.657 96.51 179.706 96.829 179.788 97.127 179.901 97.421 180.023 97.586 180.141 97.624 180.255V180.255C97.657 180.357 97.63 180.616 97.542 181.032V181.032C97.39 181.962 97.307 182.866 97.294 183.743 97.284 184.612 97.463 185.606 97.831 186.724V186.724C98.12 187.6 98.545 188.323 99.105 188.892 99.659 189.463 100.304 189.838 101.039 190.019 101.774 190.199 102.542 190.157 103.342 189.894V189.894C104.187 189.616 104.814 189.156 105.222 188.515 105.63 187.873 105.893 187.174 106.01 186.418 106.127 185.661 106.226 184.583 106.308 183.183V183.183C106.376 181.682 106.506 180.471 106.695 179.549 106.883 178.622 107.312 177.745 107.983 176.918 108.648 176.094 109.683 175.451 111.086 174.988V174.988C112.306 174.587 113.505 174.541 114.684 174.849 115.856 175.16 116.903 175.805 117.823 176.783 118.746 177.768 119.454 179.01 119.948 180.509V180.509C120.174 181.195 120.338 182.003 120.44 182.934 120.544 183.871 120.537 184.704 120.418 185.434 120.305 186.161 120.055 186.588 119.668 186.715V186.715C119.503 186.77 119.252 186.778 118.916 186.741 118.586 186.702 118.273 186.629 117.978 186.522 117.691 186.419 117.53 186.317 117.497 186.216V186.216C117.459 186.101 117.478 185.838 117.554 185.426V185.426C117.675 184.746 117.734 184.092 117.732 183.466 117.73 182.841 117.595 182.121 117.328 181.308V181.308C116.893 179.987 116.201 179.028 115.251 178.433 114.304 177.844 113.22 177.75 112.001 178.151V178.151C111.264 178.394 110.717 178.774 110.36 179.293 110.007 179.804 109.779 180.382 109.675 181.029 109.571 181.676 109.498 182.555 109.456 183.667V183.667C109.464 183.735 109.462 183.901 109.451 184.165V184.165C109.371 185.698 109.227 186.981 109.018 188.015 108.807 189.042 108.338 190.013 107.611 190.928 106.885 191.843 105.804 192.537 104.368 193.009V193.009C103.015 193.455 101.738 193.53 100.535 193.236 99.327 192.944 98.267 192.311 97.354 191.337 96.442 190.363 95.734 189.111 95.23 187.58ZM106.376 212.045C104.503 208.564 104.034 205.498 104.969 202.846 105.906 200.185 108.312 197.812 112.187 195.727V195.727C119.724 191.67 125.337 193.069 129.026 199.924V199.924C129.565 200.925 129.985 201.952 130.285 203.005 130.586 204.058 130.738 204.96 130.739 205.711 130.741 206.462 130.601 206.913 130.318 207.065V207.065C130.141 207.16 129.869 207.227 129.503 207.265 129.133 207.297 128.791 207.291 128.479 207.246 128.16 207.205 127.965 207.117 127.892 206.981V206.981C127.86 206.922 127.851 206.715 127.864 206.358V206.358C127.861 205.562 127.791 204.761 127.653 203.955 127.512 203.157 127.179 202.269 126.653 201.292V201.292C125.274 198.73 123.547 197.229 121.473 196.789 119.401 196.34 116.81 196.952 113.701 198.625V198.625C110.662 200.26 108.748 202.065 107.958 204.04 107.164 206.009 107.441 208.244 108.788 210.747V210.747C109.352 211.795 109.959 212.626 110.609 213.241 111.267 213.859 111.968 214.412 112.709 214.901V214.901C113.067 215.142 113.264 215.298 113.302 215.368V215.368C113.372 215.498 113.343 215.711 113.214 216.008 113.076 216.303 112.904 216.589 112.697 216.867 112.484 217.149 112.318 217.322 112.201 217.385V217.385C111.9 217.547 111.406 217.425 110.718 217.021 110.035 216.614 109.296 215.975 108.501 215.104 107.712 214.23 107.004 213.21 106.376 212.045ZM116.382 226.753C115.761 226 115.653 225.455 116.061 225.119V225.119L134.411 209.959C134.829 209.614 135.349 209.818 135.971 210.57V210.57L136.15 210.787C136.763 211.529 136.861 212.073 136.443 212.418V212.418L128.578 218.915 136.903 228.991 144.767 222.494C145.185 222.149 145.698 222.345 146.307 223.083V223.083L146.493 223.307C147.102 224.044 147.198 224.585 146.78 224.93V224.93L128.429 240.09C128.218 240.265 127.991 240.305 127.748 240.211 127.505 240.116 127.224 239.876 126.905 239.489V239.489L126.719 239.265C126.404 238.884 126.221 238.562 126.17 238.301 126.123 238.045 126.205 237.829 126.417 237.654V237.654L134.784 230.742 126.46 220.666 118.092 227.578C117.685 227.915 117.175 227.712 116.561 226.969V226.969ZM144.463 253.948C141.569 251.789 140.018 249.265 139.813 246.375 139.598 243.487 140.753 240.349 143.28 236.961V236.961C145.795 233.589 148.456 231.603 151.265 231.003 154.064 230.404 156.916 231.188 159.821 233.355V233.355C162.743 235.534 164.318 238.052 164.548 240.91 164.774 243.773 163.629 246.89 161.115 250.262V250.262C158.588 253.65 155.912 255.654 153.088 256.276 150.26 256.903 147.385 256.127 144.463 253.948ZM146.1 251.753C148.143 253.276 150.225 253.744 152.347 253.158 154.47 252.572 156.518 250.955 158.493 248.307V248.307C160.464 245.664 161.419 243.26 161.357 241.095 161.295 238.93 160.237 237.082 158.184 235.55V235.55C156.147 234.031 154.082 233.551 151.989 234.109 149.902 234.671 147.872 236.273 145.901 238.916V238.916C143.918 241.574 142.945 243.998 142.982 246.186 143.024 248.378 144.063 250.233 146.1 251.753ZM171.28 269.019C167.973 267.568 165.894 265.458 165.043 262.689 164.183 259.923 164.602 256.605 166.3 252.735V252.735C167.991 248.884 170.136 246.349 172.737 245.132 175.33 243.918 178.285 244.04 181.604 245.496V245.496C184.941 246.961 187.044 249.059 187.911 251.792 188.776 254.53 188.363 257.825 186.673 261.677V261.677C184.974 265.547 182.819 268.103 180.207 269.344 177.593 270.592 174.617 270.484 171.28 269.019ZM172.38 266.512C174.713 267.536 176.848 267.523 178.783 266.474 180.719 265.425 182.351 263.387 183.678 260.363V260.363C185.003 257.344 185.392 254.787 184.844 252.691 184.295 250.595 182.849 249.033 180.503 248.004V248.004C178.177 246.982 176.056 246.979 174.143 247.995 172.236 249.012 170.619 251.031 169.295 254.05V254.05C167.962 257.087 167.559 259.667 168.088 261.791 168.623 263.917 170.054 265.49 172.38 266.512ZM192.068 275.955C191.702 275.874 191.45 275.729 191.312 275.52 191.181 275.306 191.155 275.023 191.234 274.67V274.67L196.334 251.769C196.452 251.24 196.987 251.082 197.94 251.294V251.294L198.214 251.355C199.154 251.565 199.565 251.934 199.448 252.462V252.462L194.709 273.738 204.393 275.895C204.647 275.951 204.809 276.073 204.877 276.259 204.945 276.446 204.937 276.725 204.854 277.097V277.097L204.726 277.675C204.647 278.027 204.536 278.28 204.393 278.433 204.25 278.579 204.052 278.624 203.797 278.568V278.568ZM224.86 279.719C224.485 279.729 224.206 279.649 224.021 279.479 223.842 279.303 223.749 279.034 223.74 278.673V278.673L223.159 255.219C223.145 254.677 223.627 254.394 224.603 254.37V254.37L224.883 254.363C225.846 254.339 226.334 254.598 226.348 255.139V255.139L226.888 276.93 236.805 276.684C237.066 276.678 237.252 276.757 237.363 276.921 237.474 277.086 237.534 277.358 237.543 277.739V277.739L237.558 278.331C237.567 278.692 237.52 278.964 237.418 279.147 237.315 279.324 237.133 279.415 236.873 279.422V279.422ZM254.352 276.264C252.296 276.691 250.482 276.733 248.908 276.39 247.328 276.049 246.041 275.346 245.048 274.282 244.049 273.219 243.373 271.84 243.021 270.144V270.144L239.679 254.047C239.568 253.517 239.985 253.154 240.928 252.958V252.958L241.203 252.901C242.145 252.705 242.672 252.872 242.782 253.403V253.403L246.149 269.618C246.364 270.652 246.84 271.513 247.577 272.2 248.314 272.887 249.227 273.353 250.316 273.598 251.405 273.843 252.565 273.838 253.796 273.582V273.582C255.04 273.324 256.112 272.862 257.012 272.197 257.912 271.532 258.56 270.739 258.956 269.817 259.351 268.894 259.443 267.922 259.231 266.901V266.901L255.864 250.686C255.754 250.156 256.167 249.793 257.103 249.599V249.599L257.408 249.536C258.331 249.344 258.848 249.513 258.958 250.044V250.044L262.3 266.141C262.653 267.837 262.585 269.37 262.098 270.742 261.611 272.113 260.711 273.27 259.397 274.212 258.083 275.154 256.402 275.838 254.352 276.264ZM275.23 269.545C274.767 269.755 274.403 269.851 274.137 269.832 273.878 269.81 273.691 269.675 273.578 269.425V269.425L263.739 247.75C263.515 247.257 263.845 246.81 264.728 246.409V246.409L265.413 246.098C265.76 245.941 266.056 245.865 266.301 245.871 266.553 245.875 266.807 245.95 267.065 246.097V246.097L284.753 257.181 286.577 258.578 278.6 241.005C278.376 240.511 278.694 240.07 279.552 239.68V239.68L279.817 239.56C280.676 239.17 281.217 239.222 281.441 239.715V239.715L291.279 261.39C291.393 261.639 291.372 261.869 291.218 262.079 291.057 262.291 290.758 262.497 290.319 262.696V262.696L289.652 262.999C289.342 263.14 289.079 263.215 288.863 263.225 288.641 263.237 288.444 263.184 288.272 263.063V263.063L270.035 251.645 268.369 250.353 276.437 268.127C276.655 268.608 276.329 269.046 275.458 269.442V269.442ZM309.037 249.696C305.887 252.083 302.93 253.019 300.165 252.504 297.392 251.988 294.676 249.976 292.019 246.469V246.469C286.85 239.647 287.367 233.885 293.571 229.184V229.184C294.478 228.498 295.428 227.925 296.422 227.465 297.416 227.006 298.284 226.717 299.026 226.6 299.767 226.483 300.235 226.552 300.429 226.808V226.808C300.55 226.968 300.658 227.226 300.752 227.582 300.841 227.943 300.887 228.281 300.891 228.597 300.899 228.918 300.842 229.125 300.72 229.218V229.218C300.666 229.258 300.463 229.299 300.108 229.341V229.341C299.323 229.467 298.542 229.66 297.766 229.92 297 230.182 296.174 230.648 295.289 231.319V231.319C292.971 233.075 291.754 235.012 291.638 237.13 291.513 239.247 292.517 241.712 294.649 244.526V244.526C296.733 247.277 298.811 248.89 300.884 249.367 302.952 249.848 305.118 249.23 307.383 247.514V247.514C308.332 246.795 309.06 246.067 309.567 245.33 310.076 244.584 310.515 243.807 310.884 242.999V242.999C311.067 242.609 311.19 242.389 311.254 242.341V242.341C311.371 242.252 311.587 242.248 311.9 242.33 312.212 242.42 312.522 242.547 312.829 242.708 313.14 242.875 313.336 243.012 313.416 243.119V243.119C313.622 243.391 313.579 243.898 313.285 244.64 312.988 245.377 312.471 246.206 311.733 247.125 310.991 248.04 310.092 248.897 309.037 249.696ZM322.028 237.538C321.38 238.269 320.859 238.459 320.463 238.109V238.109L302.651 222.32C302.245 221.96 302.366 221.415 303.014 220.685V220.685L303.2 220.474C303.839 219.754 304.361 219.573 304.767 219.932V219.932L312.401 226.699 321.07 216.918 313.436 210.152C313.031 209.792 313.145 209.255 313.78 208.539V208.539L313.973 208.322C314.607 207.606 315.127 207.428 315.532 207.787V207.787L333.345 223.576C333.55 223.758 333.625 223.976 333.569 224.231 333.513 224.485 333.319 224.8 332.986 225.175V225.175L332.793 225.393C332.465 225.763 332.176 225.994 331.926 226.085 331.68 226.171 331.454 226.123 331.249 225.941V225.941L323.127 218.741 314.457 228.522 322.579 235.722C322.975 236.072 322.853 236.607 322.214 237.328V237.328ZM340.358 213.424C340.172 213.749 339.96 213.948 339.719 214.019 339.476 214.08 339.198 214.022 338.884 213.844V213.844L318.802 202.426C318.471 202.237 318.275 202.026 318.216 201.792 318.16 201.553 318.224 201.27 318.409 200.945V200.945L324.632 190.001C324.757 189.78 324.918 189.66 325.114 189.641 325.313 189.615 325.584 189.7 325.927 189.895V189.895L326.441 190.188C326.755 190.366 326.961 190.552 327.058 190.746 327.153 190.931 327.138 191.134 327.012 191.355V191.355L321.826 200.476 328.968 204.536 333.623 196.348C333.749 196.127 333.918 196.012 334.131 196.003 334.339 195.99 334.608 196.077 334.939 196.266V196.266L335.41 196.534C335.742 196.722 335.952 196.907 336.041 197.088 336.136 197.273 336.121 197.476 335.995 197.697V197.697L331.34 205.885 339.013 210.248 344.219 201.092C344.345 200.871 344.51 200.749 344.715 200.727 344.916 200.711 345.183 200.797 345.514 200.986V200.986L346.028 201.278C346.342 201.457 346.55 201.64 346.65 201.828 346.742 202.019 346.725 202.224 346.599 202.445V202.445ZM352.214 188.16C351.774 189.409 351.229 190.525 350.578 191.508 349.921 192.489 349.287 193.234 348.675 193.742 348.058 194.248 347.588 194.444 347.267 194.331V194.331C347.09 194.268 346.879 194.113 346.634 193.863 346.394 193.616 346.191 193.357 346.025 193.085 345.866 192.81 345.807 192.615 345.847 192.502V192.502C345.883 192.401 346.062 192.213 346.386 191.937V191.937C347.074 191.292 347.691 190.627 348.237 189.94 348.775 189.258 349.24 188.361 349.63 187.251V187.251C349.937 186.38 350.042 185.549 349.945 184.756 349.854 183.966 349.573 183.275 349.101 182.683 348.628 182.092 347.995 181.656 347.2 181.376V181.376C346.361 181.081 345.584 181.063 344.869 181.322 344.154 181.58 343.519 181.974 342.965 182.502 342.41 183.03 341.674 183.823 340.755 184.882V184.882C339.784 186.03 338.943 186.91 338.23 187.524 337.516 188.145 336.64 188.578 335.604 188.823 334.574 189.07 333.362 188.948 331.968 188.458V188.458C330.757 188.031 329.779 187.336 329.034 186.372 328.295 185.41 327.859 184.261 327.727 182.924 327.597 181.581 327.794 180.165 328.318 178.676V178.676C328.558 177.995 328.921 177.255 329.408 176.455 329.897 175.649 330.412 174.993 330.951 174.488 331.484 173.981 331.943 173.795 332.327 173.93V173.93C332.491 173.988 332.695 174.134 332.939 174.369 333.176 174.601 333.379 174.85 333.548 175.115 333.713 175.372 333.778 175.55 333.742 175.651V175.651C333.702 175.765 333.527 175.962 333.215 176.242V176.242C332.704 176.707 332.258 177.188 331.878 177.686 331.497 178.183 331.165 178.835 330.881 179.642V179.642C330.419 180.954 330.383 182.136 330.771 183.187 331.162 184.232 331.963 184.968 333.174 185.394V185.394C333.906 185.651 334.571 185.684 335.171 185.491 335.762 185.302 336.296 184.983 336.773 184.534 337.25 184.085 337.845 183.433 338.557 182.578V182.578C338.592 182.519 338.694 182.388 338.865 182.186V182.186C339.864 181.021 340.761 180.092 341.557 179.401 342.351 178.716 343.315 178.233 344.449 177.952 345.583 177.67 346.863 177.781 348.289 178.282V178.282C349.632 178.755 350.69 179.475 351.463 180.442 352.242 181.411 352.696 182.559 352.824 183.887 352.952 185.216 352.749 186.64 352.214 188.16ZM87.851 143.35C87.851 137.988 92.197 133.642 97.559 133.642 102.92 133.642 107.266 137.988 107.266 143.35 107.266 148.711 102.92 153.057 97.559 153.057 92.197 153.057 87.851 148.711 87.851 143.35ZM340.38 143.35C340.38 137.988 344.726 133.642 350.087 133.642 355.449 133.642 359.795 137.988 359.795 143.35 359.795 148.711 355.449 153.057 350.087 153.057 344.726 153.057 340.38 148.711 340.38 143.35Z" fill="#0747a1" data-fill-palette-color="primary"></path></svg></g></svg></g></svg></g></svg></g></svg></g></svg></g></svg><rect width="512" height="320" fill="none" stroke="none" visibility="hidden"></rect></g></svg></g></svg>